<svg xmlns="http://www.w3.org/2000/svg" viewBox="0 0 800 340" font-family="Arial, sans-serif" font-size="12">
  <!-- Background: App, Website, or Ad SDK -->
  <rect x="200" y="0" width="400" height="340" fill="#1a1a1a" rx="4"/>
  <text x="400" y="18" text-anchor="middle" fill="white" font-size="11">App, Website, or Ad SDK</text>

  <!-- Ad Server (external left) -->
  <rect x="10" y="40" width="160" height="120" fill="#ffff99" stroke="#333" rx="3"/>
  <text x="90" y="60" text-anchor="middle" font-weight="bold">Ad Server</text>
  <!-- Ad Creative inside Ad Server -->
  <rect x="30" y="70" width="120" height="60" fill="#ffff99" stroke="#333" rx="3"/>
  <text x="90" y="95" text-anchor="middle">Ad Creative</text>
  <!-- Ad Verification tag inside Ad Creative -->
  <rect x="40" y="105" width="100" height="20" fill="#ff9933" stroke="#333" rx="3"/>
  <text x="90" y="119" text-anchor="middle" font-size="10">Ad Verification</text>

  <!-- Ad View (green, inside app) -->
  <rect x="230" y="35" width="200" height="80" fill="#7fbf4f" stroke="#333" rx="3"/>
  <text x="330" y="80" text-anchor="middle" font-weight="bold" fill="white">Ad View</text>

  <!-- Arrow: Ad Server -> Ad View -->
  <line x1="170" y1="100" x2="228" y2="75" stroke="#333" stroke-width="2" marker-end="url(#arrow)"/>

  <!-- Common Signals label (between Ad View and OM SDK) -->
  <text x="330" y="140" text-anchor="middle" fill="#ccc" font-size="10" font-style="italic">Common Signals</text>
  <line x1="330" y1="115" x2="330" y2="155" stroke="#999" stroke-width="1.5" marker-end="url(#arrow)" marker-start="url(#arrow)"/>

  <!-- OM SDK (green, inside app) -->
  <rect x="230" y="160" width="200" height="70" fill="#339933" stroke="#333" rx="3"/>
  <text x="330" y="200" text-anchor="middle" font-weight="bold" fill="white">OM SDK</text>

  <!-- Verification Script (orange, inside app) -->
  <rect x="470" y="160" width="110" height="70" fill="#ff9933" stroke="#333" rx="3"/>
  <text x="525" y="190" text-anchor="middle" font-size="11">Verification</text>
  <text x="525" y="205" text-anchor="middle" font-size="11">Script</text>

  <!-- Arrow: OM SDK -> Verification Script -->
  <line x1="430" y1="195" x2="468" y2="195" stroke="#333" stroke-width="2" marker-end="url(#arrow)"/>
  <text x="449" y="188" text-anchor="middle" fill="#ccc" font-size="9">OMID</text>
  <text x="449" y="198" text-anchor="middle" fill="#ccc" font-size="9">Events</text>

  <!-- Verification Partner Server (external right) -->
  <rect x="640" y="150" width="140" height="90" fill="#ff9933" stroke="#333" rx="3"/>
  <text x="710" y="190" text-anchor="middle" font-weight="bold" font-size="11">Verification</text>
  <text x="710" y="205" text-anchor="middle" font-weight="bold" font-size="11">Partner Server</text>

  <!-- Arrow: Verification Script -> VPS -->
  <line x1="580" y1="195" x2="638" y2="195" stroke="#333" stroke-width="2" marker-end="url(#arrow)"/>

  <!-- Legend -->
  <rect x="640" y="30" width="16" height="12" fill="#ffff99" stroke="#333"/>
  <text x="662" y="41" font-size="10">Integration Partner</text>
  <rect x="640" y="50" width="16" height="12" fill="#339933" stroke="#333"/>
  <text x="662" y="61" font-size="10">OM SDK</text>
  <rect x="640" y="70" width="16" height="12" fill="#ff9933" stroke="#333"/>
  <text x="662" y="81" font-size="10">Third party</text>

  <!-- Arrow marker -->
  <defs>
    <marker id="arrow" viewBox="0 0 10 10" refX="9" refY="5" markerWidth="6" markerHeight="6" orient="auto-start-reverse">
      <path d="M 0 0 L 10 5 L 0 10 z" fill="#333"/>
    </marker>
  </defs>
</svg>
