<svg xmlns="http://www.w3.org/2000/svg" viewBox="0 0 800 268" font-family="Arial, sans-serif" font-size="12">
  <!-- v3: explicit white background for dark mode compatibility -->
  <rect x="0" y="0" width="800" height="268" fill="white"/>
  <defs>
    <marker id="arrow" viewBox="0 0 10 10" refX="9" refY="5" markerWidth="6" markerHeight="6" orient="auto-start-reverse">
      <path d="M 0 0 L 10 5 L 0 10 z" fill="#555"/>
    </marker>
  </defs>

  <!-- Background: App, Website, or Ad SDK -->
  <rect x="200" y="0" width="400" height="263" fill="#3a3a3a" rx="4"/>
  <text x="400" y="18" text-anchor="middle" fill="white" font-size="11">App, Website, or Ad SDK</text>

  <!-- Ad Server (external left) -->
  <rect x="10" y="40" width="160" height="120" fill="#ffff99" stroke="#999" rx="3"/>
  <text x="90" y="60" text-anchor="middle" font-weight="bold">Ad Server</text>
  <rect x="30" y="70" width="120" height="60" fill="#ffff99" stroke="#999" rx="3"/>
  <text x="90" y="95" text-anchor="middle">Ad Creative</text>
  <rect x="40" y="105" width="100" height="20" fill="#ff9933" stroke="#999" rx="3"/>
  <text x="90" y="119" text-anchor="middle" font-size="10">Ad Verification</text>

  <!-- Ad View (green, inside app) -->
  <rect x="230" y="30" width="200" height="80" fill="#7fbf4f" stroke="#666" rx="3"/>
  <text x="330" y="75" text-anchor="middle" font-weight="bold" fill="white">Ad View</text>

  <!-- Arrow: Ad Server -> Ad View -->
  <line x1="170" y1="90" x2="228" y2="70" stroke="#888" stroke-width="2" marker-end="url(#arrow)"/>

  <!-- Common Signals (between Ad View and OM SDK) -->
  <text x="330" y="132" text-anchor="middle" fill="#ccc" font-size="10" font-style="italic">Common Signals</text>
  <line x1="330" y1="110" x2="330" y2="150" stroke="#aaa" stroke-width="1.5" marker-end="url(#arrow)" marker-start="url(#arrow)"/>

  <!-- OM SDK (green, inside app) -->
  <rect x="230" y="155" width="200" height="65" fill="#339933" stroke="#666" rx="3"/>
  <text x="330" y="193" text-anchor="middle" font-weight="bold" fill="white">OM SDK</text>

  <!-- Verification Script (orange, inside app) -->
  <rect x="470" y="155" width="110" height="65" fill="#ff9933" stroke="#666" rx="3"/>
  <text x="525" y="183" text-anchor="middle" font-size="11">Verification</text>
  <text x="525" y="198" text-anchor="middle" font-size="11">Script</text>

  <!-- Arrow: OM SDK -> Verification Script -->
  <line x1="430" y1="188" x2="468" y2="188" stroke="#888" stroke-width="2" marker-end="url(#arrow)"/>
  <text x="449" y="180" text-anchor="middle" fill="#ccc" font-size="9">OMID</text>
  <text x="449" y="200" text-anchor="middle" fill="#ccc" font-size="9">Events</text>

  <!-- Verification Partner Server (external right) -->
  <rect x="640" y="145" width="140" height="85" fill="#ff9933" stroke="#999" rx="3"/>
  <text x="710" y="183" text-anchor="middle" font-weight="bold" font-size="11">Verification</text>
  <text x="710" y="198" text-anchor="middle" font-weight="bold" font-size="11">Partner Server</text>

  <!-- Arrow: Verification Script -> VPS -->
  <line x1="580" y1="188" x2="638" y2="188" stroke="#888" stroke-width="2" marker-end="url(#arrow)"/>

  <!-- Legend -->
  <rect x="640" y="25" width="16" height="12" fill="#ffff99" stroke="#999"/>
  <text x="662" y="36" font-size="10">Integration Partner</text>
  <rect x="640" y="45" width="16" height="12" fill="#339933" stroke="#999"/>
  <text x="662" y="56" font-size="10">OM SDK</text>
  <rect x="640" y="65" width="16" height="12" fill="#ff9933" stroke="#999"/>
  <text x="662" y="76" font-size="10">Third party</text>
</svg>
