<svg xmlns="http://www.w3.org/2000/svg" viewBox="0 0 780 310" font-family="Arial, sans-serif" font-size="11">
  <rect x="0" y="0" width="780" height="310" fill="white"/>
  <defs>
    <marker id="arrow" viewBox="0 0 10 10" refX="9" refY="5" markerWidth="6" markerHeight="6" orient="auto-start-reverse">
      <path d="M 0 0 L 10 5 L 0 10 z" fill="#555"/>
    </marker>
  </defs>

  <!-- Outer container: Integration Partner App or Ad SDK -->
  <rect x="5" y="5" width="560" height="300" fill="#e8e8e8" stroke="#999" rx="4"/>
  <text x="285" y="22" text-anchor="middle" font-size="11" font-weight="bold">Integration Partner App or Ad SDK</text>

  <!-- Ad View (WebView) - green container -->
  <rect x="140" y="35" width="260" height="175" fill="#7fbf4f" stroke="#999" rx="3"/>
  <text x="270" y="52" text-anchor="middle" fill="white" font-size="10" font-weight="bold">Ad View (WebView)</text>

  <!-- Ad Creative or Video Player (yellow, inside WebView) -->
  <rect x="160" y="60" width="220" height="35" fill="#ffff66" stroke="#999" rx="3"/>
  <text x="270" y="82" text-anchor="middle" font-size="10">Ad Creative or Video Player</text>

  <!-- Session Client (yellow, inside WebView) -->
  <rect x="160" y="110" width="220" height="35" fill="#ffff66" stroke="#999" rx="3"/>
  <text x="270" y="132" text-anchor="middle" font-size="10">Session Client (JavaScript API)</text>

  <!-- Native Controller (gray, left side, outside WebView) -->
  <rect x="15" y="40" width="100" height="100" fill="#c0c0c0" stroke="#999" rx="3"/>
  <text x="65" y="85" text-anchor="middle" font-size="10">Native</text>
  <text x="65" y="98" text-anchor="middle" font-size="10">Controller</text>

  <!-- Arrow: Native Controller -> OM SDK Native (Native Signals) -->
  <line x1="65" y1="140" x2="65" y2="178" stroke="#555" stroke-width="1.5" marker-end="url(#arrow)"/>
  <text x="42" y="155" font-size="8" fill="#555">Native</text>
  <text x="42" y="164" font-size="8" fill="#555">Signals</text>

  <!-- OM SDK Native API (blue, below Native Controller) -->
  <rect x="15" y="180" width="100" height="55" fill="#4472c4" stroke="#999" rx="3"/>
  <text x="65" y="203" text-anchor="middle" fill="white" font-size="10">OM SDK</text>
  <text x="65" y="216" text-anchor="middle" fill="white" font-size="10">(Native API)</text>

  <!-- Arrow: Session Client -> JS Service (JS Signals) -->
  <line x1="270" y1="145" x2="270" y2="218" stroke="#555" stroke-width="1.5" marker-end="url(#arrow)"/>
  <text x="285" y="185" font-size="8" fill="#555">JS Signals</text>

  <!-- OM SDK JS Service (dark green, center-bottom) -->
  <rect x="170" y="220" width="150" height="50" fill="#339933" stroke="#999" rx="3"/>
  <text x="245" y="242" text-anchor="middle" fill="white" font-size="10">OM SDK</text>
  <text x="245" y="255" text-anchor="middle" fill="white" font-size="10">JS Service</text>

  <!-- Arrow: OM SDK Native -> JS Service (OMID Bridge) -->
  <line x1="115" y1="215" x2="168" y2="240" stroke="#555" stroke-width="1.5" marker-end="url(#arrow)"/>
  <text x="130" y="235" font-size="8" fill="#555">OMID Bridge</text>

  <!-- Verification Script (orange, right side) -->
  <rect x="410" y="195" width="140" height="80" fill="#ff9933" stroke="#999" rx="3"/>
  <text x="480" y="218" text-anchor="middle" font-size="10" font-weight="bold">Verification Script</text>
  <!-- Verification Client (inside Verification Script) -->
  <rect x="420" y="240" width="120" height="25" fill="#ff9933" stroke="#999" rx="2"/>
  <text x="480" y="257" text-anchor="middle" font-size="9">Verification Client</text>
  <text x="480" y="228" text-anchor="middle" font-size="9">(JavaScript API)</text>

  <!-- Arrow: JS Service -> Verification Script (OMID Events) -->
  <line x1="320" y1="245" x2="408" y2="235" stroke="#555" stroke-width="1.5" marker-end="url(#arrow)"/>
  <text x="364" y="230" text-anchor="middle" font-size="8" fill="#555">OMID Events</text>

  <!-- Legend -->
  <rect x="600" y="35" width="14" height="11" fill="#c0c0c0" stroke="#999"/>
  <text x="620" y="45" font-size="9">Integration Partner (Native)</text>
  <rect x="600" y="55" width="14" height="11" fill="#ffff66" stroke="#999"/>
  <text x="620" y="65" font-size="9">Integration Partner (JavaScript)</text>
  <rect x="600" y="75" width="14" height="11" fill="#4472c4" stroke="#999"/>
  <text x="620" y="85" font-size="9">OM SDK (Native)</text>
  <rect x="600" y="95" width="14" height="11" fill="#339933" stroke="#999"/>
  <text x="620" y="105" font-size="9">OM SDK (JavaScript)</text>
  <rect x="600" y="115" width="14" height="11" fill="#ff9933" stroke="#999"/>
  <text x="620" y="125" font-size="9">Third party (JavaScript)</text>
</svg>
