<svg xmlns="http://www.w3.org/2000/svg" viewBox="0 0 820 310" font-family="Arial, sans-serif" font-size="11">
  <!-- v3 -->
  <rect x="0" y="0" width="820" height="310" fill="white"/>
  <defs>
    <marker id="arrow" viewBox="0 0 10 10" refX="9" refY="5" markerWidth="6" markerHeight="6" orient="auto-start-reverse">
      <path d="M 0 0 L 10 5 L 0 10 z" fill="#333"/>
    </marker>
  </defs>

  <!-- Outer: Integration Partner App or Ad SDK -->
  <rect x="0" y="0" width="620" height="310" fill="#e0e0e0" stroke="#333" rx="4"/>
  <text x="310" y="16" text-anchor="middle" font-size="11" font-weight="bold">Integration Partner App or Ad SDK</text>

  <!-- Native Controller -->
  <rect x="10" y="60" width="90" height="190" fill="#c0c0c0" stroke="#333" rx="3"/>
  <text x="55" y="150" text-anchor="middle" font-size="10">Native</text>
  <text x="55" y="163" text-anchor="middle" font-size="10">Controller</text>

  <!-- OM SDK (Native API) - blue -->
  <rect x="10" y="170" width="90" height="60" fill="#4472c4" stroke="#333" rx="3"/>
  <text x="55" y="195" text-anchor="middle" fill="white" font-size="10">OM SDK</text>
  <text x="55" y="208" text-anchor="middle" fill="white" font-size="10">(Native API)</text>

  <!-- Ad View (WebView) - green container -->
  <rect x="140" y="30" width="240" height="160" fill="#7fbf4f" stroke="#333" rx="3"/>
  <text x="260" y="48" text-anchor="middle" fill="white" font-size="10">Ad View (WebView)</text>

  <!-- Ad Creative or Video Player - yellow inside WebView -->
  <rect x="155" y="55" width="210" height="45" fill="#ffff66" stroke="#333" rx="3"/>
  <text x="260" y="75" text-anchor="middle" font-size="10">Ad Creative</text>
  <text x="260" y="88" text-anchor="middle" font-size="10">or Video Player</text>

  <!-- Session Client - yellow inside WebView -->
  <rect x="155" y="110" width="210" height="35" fill="#ffff66" stroke="#333" rx="3"/>
  <text x="260" y="132" text-anchor="middle" font-size="10">Session Client (JavaScript API)</text>

  <!-- Arrow: Native Controller -> OM SDK Native (Native Signals) -->
  <line x1="55" y1="130" x2="55" y2="168" stroke="#333" stroke-width="1.5" marker-end="url(#arrow)"/>
  <text x="30" y="152" font-size="8" fill="#333">Native</text>
  <text x="30" y="161" font-size="8" fill="#333">Signals</text>

  <!-- Arrow: Session Client -> JS Service (JS Signals) -->
  <line x1="260" y1="145" x2="260" y2="200" stroke="#333" stroke-width="1.5" marker-end="url(#arrow)"/>
  <text x="270" y="175" font-size="8" fill="#333">JS Signals</text>

  <!-- OM SDK JS Service - green -->
  <rect x="180" y="205" width="160" height="50" fill="#339933" stroke="#333" rx="3"/>
  <text x="260" y="228" text-anchor="middle" fill="white" font-size="10">OM SDK</text>
  <text x="260" y="241" text-anchor="middle" fill="white" font-size="10">JS Service</text>

  <!-- OMID Bridge: Native API <-> JS Service -->
  <line x1="100" y1="230" x2="178" y2="230" stroke="#333" stroke-width="1.5" marker-end="url(#arrow)"/>
  <text x="139" y="224" text-anchor="middle" font-size="8" fill="#333">OMID</text>
  <text x="139" y="233" text-anchor="middle" font-size="8" fill="#333">Bridge</text>

  <!-- Verification Script - orange -->
  <rect x="420" y="195" width="110" height="65" fill="#ff9933" stroke="#333" rx="3"/>
  <text x="475" y="222" text-anchor="middle" font-size="10">Verification Script</text>

  <!-- Verification Client - orange -->
  <rect x="430" y="240" width="90" height="25" fill="#ff9933" stroke="#333" rx="2"/>
  <text x="475" y="257" text-anchor="middle" font-size="9">Verification Client</text>
  <text x="475" y="235" text-anchor="middle" font-size="8">(JavaScript API)</text>

  <!-- Arrow: JS Service -> Verification Script (OMID Events) -->
  <line x1="340" y1="230" x2="418" y2="230" stroke="#333" stroke-width="1.5" marker-end="url(#arrow)"/>
  <text x="379" y="222" text-anchor="middle" font-size="8" fill="#333">OMID</text>
  <text x="379" y="231" text-anchor="middle" font-size="8" fill="#333">Events</text>

  <!-- Legend -->
  <rect x="640" y="30" width="14" height="11" fill="#c0c0c0" stroke="#333"/>
  <text x="660" y="40" font-size="9">Integration Partner (Native)</text>
  <rect x="640" y="50" width="14" height="11" fill="#ffff66" stroke="#333"/>
  <text x="660" y="60" font-size="9">Integration Partner (JavaScript)</text>
  <rect x="640" y="70" width="14" height="11" fill="#4472c4" stroke="#333"/>
  <text x="660" y="80" font-size="9">OM SDK (Native)</text>
  <rect x="640" y="90" width="14" height="11" fill="#339933" stroke="#333"/>
  <text x="660" y="100" font-size="9">OM SDK (JavaScript)</text>
  <rect x="640" y="110" width="14" height="11" fill="#ff9933" stroke="#333"/>
  <text x="660" y="120" font-size="9">Third party (JavaScript)</text>
</svg>
