<svg xmlns="http://www.w3.org/2000/svg" viewBox="0 0 780 300" font-family="Arial, sans-serif" font-size="11">
  <rect x="0" y="0" width="780" height="300" fill="white"/>
  <defs>
    <marker id="arrow" viewBox="0 0 10 10" refX="9" refY="5" markerWidth="6" markerHeight="6" orient="auto-start-reverse">
      <path d="M 0 0 L 10 5 L 0 10 z" fill="#333"/>
    </marker>
  </defs>

  <!-- Outer: Integration Partner App or Ad SDK -->
  <rect x="5" y="5" width="560" height="290" fill="#e0e0e0" stroke="#333" rx="4"/>
  <text x="285" y="20" text-anchor="middle" font-size="11" font-weight="bold">Integration Partner App or Ad SDK</text>

  <!-- Native Controller (gray, top-left) -->
  <rect x="15" y="32" width="110" height="65" fill="#c0c0c0" stroke="#333" rx="3"/>
  <text x="70" y="62" text-anchor="middle" font-size="10">Native</text>
  <text x="70" y="75" text-anchor="middle" font-size="10">Controller</text>

  <!-- Ad View or Video Player (gray, top-center) -->
  <rect x="160" y="32" width="160" height="55" fill="#c0c0c0" stroke="#333" rx="3"/>
  <text x="240" y="57" text-anchor="middle" font-size="10">Ad View</text>
  <text x="240" y="70" text-anchor="middle" font-size="10">or Video Player</text>

  <!-- Arrow: Native Controller -> OM SDK Native (Native Signals) -->
  <line x1="70" y1="97" x2="70" y2="148" stroke="#333" stroke-width="1.5" marker-end="url(#arrow)"/>
  <text x="48" y="118" font-size="8" fill="#333">Native</text>
  <text x="48" y="127" font-size="8" fill="#333">Signals</text>

  <!-- OM SDK (Native API) - blue -->
  <rect x="15" y="150" width="110" height="60" fill="#4472c4" stroke="#333" rx="3"/>
  <text x="70" y="176" text-anchor="middle" fill="white" font-size="10">OM SDK</text>
  <text x="70" y="189" text-anchor="middle" fill="white" font-size="10">(Native API)</text>

  <!-- OM SDK WebView / JavaScript Context - blue container -->
  <rect x="155" y="110" width="290" height="170" fill="#4472c4" stroke="#333" rx="3"/>
  <text x="300" y="128" text-anchor="middle" fill="white" font-size="9">OM SDK WebView (Android) or JavaScript Context (iOS)</text>

  <!-- OM SDK JS Service - green inside blue -->
  <rect x="170" y="140" width="130" height="50" fill="#339933" stroke="#333" rx="3"/>
  <text x="235" y="163" text-anchor="middle" fill="white" font-size="10">OM SDK</text>
  <text x="235" y="176" text-anchor="middle" fill="white" font-size="10">JS Service</text>

  <!-- Verification Script - orange inside blue -->
  <rect x="340" y="140" width="90" height="50" fill="#ff9933" stroke="#333" rx="3"/>
  <text x="385" y="163" text-anchor="middle" font-size="9">Verification</text>
  <text x="385" y="175" text-anchor="middle" font-size="9">Script</text>

  <!-- Arrow: JS Service -> Verification Script (OMID Events) -->
  <line x1="300" y1="165" x2="338" y2="165" stroke="white" stroke-width="1.5" marker-end="url(#arrow)"/>
  <text x="319" y="158" text-anchor="middle" font-size="8" fill="white">OMID</text>
  <text x="319" y="180" text-anchor="middle" font-size="8" fill="white">Events</text>

  <!-- Verification Client - orange inside blue, below JS Service + Verification Script -->
  <rect x="170" y="205" width="260" height="35" fill="#ff9933" stroke="#333" rx="3"/>
  <text x="300" y="220" text-anchor="middle" font-size="10">Verification Client</text>
  <text x="300" y="233" text-anchor="middle" font-size="9">(JavaScript API)</text>

  <!-- OMID Bridge: Native API <-> JS Service -->
  <line x1="125" y1="180" x2="168" y2="168" stroke="#333" stroke-width="1.5" marker-end="url(#arrow)"/>
  <text x="138" y="162" text-anchor="middle" font-size="8" fill="#333">OMID</text>
  <text x="138" y="192" text-anchor="middle" font-size="8" fill="#333">Bridge</text>

  <!-- Legend -->
  <rect x="600" y="32" width="14" height="11" fill="#c0c0c0" stroke="#333"/>
  <text x="620" y="42" font-size="9">Integration Partner (Native)</text>
  <rect x="600" y="52" width="14" height="11" fill="#4472c4" stroke="#333"/>
  <text x="620" y="62" font-size="9">OM SDK (Native)</text>
  <rect x="600" y="72" width="14" height="11" fill="#339933" stroke="#333"/>
  <text x="620" y="82" font-size="9">OM SDK (JavaScript)</text>
  <rect x="600" y="92" width="14" height="11" fill="#ff9933" stroke="#333"/>
  <text x="620" y="102" font-size="9">Third party (JavaScript)</text>
</svg>
