<svg xmlns="http://www.w3.org/2000/svg" viewBox="0 0 780 180" font-family="Arial, sans-serif" font-size="11">
  <rect x="0" y="0" width="780" height="180" fill="white"/>
  <defs>
    <marker id="arrow" viewBox="0 0 10 10" refX="9" refY="5" markerWidth="6" markerHeight="6" orient="auto-start-reverse">
      <path d="M 0 0 L 10 5 L 0 10 z" fill="#333"/>
    </marker>
  </defs>

  <!-- Outer: Integration Partner Website or Web Ad SDK -->
  <rect x="5" y="5" width="540" height="170" fill="#e0e0e0" stroke="#333" rx="4"/>
  <text x="275" y="22" text-anchor="middle" font-size="11" font-weight="bold">Integration Partner Website or Web Ad SDK</text>

  <!-- Video Player - yellow -->
  <rect x="15" y="40" width="140" height="80" fill="#ffff66" stroke="#333" rx="3"/>
  <text x="85" y="60" text-anchor="middle" font-size="10" font-weight="bold">Video Player</text>
  <!-- OMID Session inside Video Player -->
  <rect x="25" y="72" width="120" height="35" fill="#ffff66" stroke="#333" rx="2"/>
  <text x="85" y="86" text-anchor="middle" font-size="9">OMID Session</text>
  <text x="85" y="99" text-anchor="middle" font-size="9">(JavaScript APIs)</text>

  <!-- Arrow: Video Player -> OM Web Video SDK (JS Signals) -->
  <line x1="155" y1="80" x2="198" y2="80" stroke="#333" stroke-width="1.5" marker-end="url(#arrow)"/>
  <text x="176" y="73" text-anchor="middle" font-size="8" fill="#333">JS Signals</text>

  <!-- OM Web Video SDK - green -->
  <rect x="200" y="45" width="130" height="70" fill="#339933" stroke="#333" rx="3"/>
  <text x="265" y="77" text-anchor="middle" fill="white" font-size="10">OM Web Video</text>
  <text x="265" y="90" text-anchor="middle" fill="white" font-size="10">SDK</text>

  <!-- Arrow: OM Web Video SDK -> Verification Script (OMID Events) -->
  <line x1="330" y1="80" x2="378" y2="80" stroke="#333" stroke-width="1.5" marker-end="url(#arrow)"/>
  <text x="354" y="72" text-anchor="middle" font-size="8" fill="#333">OMID</text>
  <text x="354" y="93" text-anchor="middle" font-size="8" fill="#333">Events</text>

  <!-- Verification Script - orange -->
  <rect x="380" y="40" width="150" height="80" fill="#ff9933" stroke="#333" rx="3"/>
  <text x="455" y="60" text-anchor="middle" font-size="10" font-weight="bold">Verification Script</text>
  <!-- Verification Client inside -->
  <rect x="390" y="72" width="130" height="35" fill="#ff9933" stroke="#333" rx="2"/>
  <text x="455" y="86" text-anchor="middle" font-size="9">Verification Client</text>
  <text x="455" y="99" text-anchor="middle" font-size="9">(JavaScript API)</text>

  <!-- Legend -->
  <rect x="600" y="40" width="14" height="11" fill="#ffff66" stroke="#333"/>
  <text x="620" y="50" font-size="9">Integration Partner</text>
  <rect x="600" y="60" width="14" height="11" fill="#339933" stroke="#333"/>
  <text x="620" y="70" font-size="9">OM SDK</text>
  <rect x="600" y="80" width="14" height="11" fill="#ff9933" stroke="#333"/>
  <text x="620" y="90" font-size="9">Third party</text>
</svg>
